<?xml version="1.0" standalone="no"?>
<!DOCTYPE svg PUBLIC "-//W3C//DTD SVG 20010904//EN"
 "http://www.w3.org/TR/2001/REC-SVG-20010904/DTD/svg10.dtd">
<svg version="1.0" xmlns="http://www.w3.org/2000/svg"
 width="1024.000000pt" height="1024.000000pt" viewBox="0 0 1024.000000 1024.000000"
 preserveAspectRatio="xMidYMid meet">

<g transform="translate(0.000000,1024.000000) scale(0.100000,-0.100000)"
fill="#000000" stroke="none">
<path d="M3322 7695 c0 -16 2 -22 5 -12 2 9 2 23 0 30 -3 6 -5 -1 -5 -18z"/>
<path d="M3340 7598 c0 -24 3 -48 6 -51 4 -3 8 -21 9 -39 3 -33 16 -117 34
-213 16 -84 14 -93 -16 -97 -30 -3 -30 -5 -15 -80 7 -38 7 -45 -5 -41 -7 3
-21 -2 -31 -10 -9 -9 -20 -16 -25 -16 -31 1 -68 -15 -63 -26 3 -8 8 -42 12
-77 4 -35 9 -57 11 -50 9 24 23 11 22 -20 0 -28 -2 -30 -9 -13 -8 18 -9 18 -9
-5 -1 -14 5 -50 13 -80 8 -30 16 -73 20 -95 9 -71 18 -105 27 -105 5 0 9 10
10 23 1 18 3 16 9 -8 20 -73 59 -269 55 -274 -7 -6 -45 40 -45 54 0 7 -6 15
-14 18 -7 3 -26 41 -41 84 -16 43 -32 82 -37 88 -4 5 -8 15 -8 23 0 8 -6 28
-14 45 -8 18 -29 68 -46 112 -18 44 -40 98 -49 120 -10 22 -33 79 -52 128 -31
81 -49 102 -64 77 -3 -5 -17 -10 -30 -10 -19 0 -26 7 -33 33 -7 28 -13 32 -42
32 -28 0 -35 4 -40 25 -6 26 -19 28 -85 15 -35 -8 -19 -33 -152 243 -108 224
-117 198 -13 -40 18 -43 90 -232 90 -238 0 -3 -16 -14 -35 -23 -34 -16 -45
-39 -25 -52 17 -11 11 -44 -10 -55 -19 -10 -19 -12 -4 -41 16 -32 7 -59 -22
-59 -7 0 -16 -5 -19 -10 -9 -14 14 -120 26 -120 14 0 11 -19 -5 -35 -12 -12
-15 -11 -21 13 -5 15 -8 36 -9 47 -1 16 -7 20 -30 18 -37 -3 -38 -5 -22 -39 7
-16 30 -66 51 -111 21 -45 42 -80 46 -77 5 3 9 0 9 -6 0 -6 5 -8 11 -4 7 4 7
9 2 13 -15 9 -23 51 -10 48 6 -1 11 3 12 10 1 33 15 17 39 -43 28 -70 28 -114
1 -114 -8 0 -15 9 -15 20 0 11 -5 20 -11 20 -6 0 -8 9 -3 22 6 20 5 21 -9 10
-18 -15 -15 -25 56 -175 40 -87 41 -88 54 -62 8 14 11 36 8 48 -6 21 -5 21 9
3 9 -10 13 -23 10 -27 -3 -5 -2 -9 3 -9 4 0 16 -21 26 -48 10 -26 22 -54 27
-63 4 -8 4 -23 -2 -32 -8 -16 -11 -16 -25 -2 -8 9 -12 23 -8 32 3 10 3 14 -2
10 -4 -4 -15 12 -24 35 -16 38 -18 40 -18 16 -1 -16 2 -28 7 -28 9 0 47 -128
46 -153 -1 -16 1 -17 11 -5 17 18 31 63 16 54 -10 -7 -6 14 7 38 11 19 22 -36
11 -57 -10 -21 -9 -21 5 -3 15 18 16 18 25 -5 5 -14 19 -47 31 -74 12 -28 27
-61 32 -75 6 -14 14 -33 19 -42 5 -10 9 -24 9 -32 0 -8 4 -16 9 -18 5 -1 20
-27 35 -55 l26 -52 -22 -15 c-13 -8 -56 -29 -95 -47 -40 -18 -73 -38 -73 -45
0 -7 -7 -14 -14 -17 -14 -6 -47 51 -220 376 -28 53 -33 58 -58 53 -19 -4 -30
0 -37 11 -11 20 -30 12 -129 -52 -51 -33 -61 -44 -59 -65 1 -18 -5 -28 -26
-38 -16 -8 -31 -20 -34 -28 -3 -8 15 -47 40 -86 25 -40 75 -131 112 -203 37
-71 73 -136 79 -144 8 -11 7 -16 -7 -25 -10 -6 -74 -48 -143 -93 -69 -46 -127
-83 -129 -83 -11 0 -163 -96 -186 -117 -14 -12 -29 -23 -33 -23 -4 0 -19 -9
-33 -20 -14 -11 -23 -20 -20 -20 7 0 15 4 242 130 77 43 160 88 185 102 25 14
113 64 196 111 83 48 154 87 157 87 3 0 97 52 208 117 197 112 264 143 339
157 l35 7 -35 -23 c-38 -24 -163 -124 -217 -172 -45 -40 -93 -68 -93 -55 0 6
9 13 19 16 11 3 22 12 25 20 3 8 -65 -23 -152 -68 -86 -45 -195 -101 -242
-125 -119 -59 -270 -147 -242 -141 36 8 26 -1 -36 -32 -36 -18 -67 -27 -83
-24 -17 3 -83 -25 -234 -103 -275 -139 -267 -135 -261 -141 2 -3 31 8 63 25
178 91 381 178 391 167 7 -6 7 -6 -48 -41 -49 -30 -150 -87 -300 -167 -52 -27
-106 -58 -120 -66 -14 -9 -38 -23 -53 -31 -16 -8 -24 -16 -19 -18 11 -3 101
35 272 116 175 83 276 129 299 137 43 13 18 -11 -56 -55 -103 -60 -121 -71
-168 -101 -22 -14 -71 -45 -110 -69 -38 -24 -100 -63 -137 -87 -37 -23 -70
-43 -74 -43 -11 0 -65 -42 -60 -47 5 -5 151 70 301 157 132 75 173 98 340 187
77 42 163 88 190 103 28 15 79 43 115 62 36 20 112 63 170 96 57 33 106 59
107 58 2 -2 -15 -35 -36 -75 -22 -39 -43 -81 -46 -91 -6 -20 -211 -129 -310
-165 -27 -10 -56 -23 -63 -28 -9 -7 -17 -6 -25 2 -9 10 -9 12 3 10 20 -3 50
11 74 33 28 26 16 23 -79 -22 -47 -22 -88 -40 -91 -40 -3 0 -13 -7 -21 -16
-12 -12 -13 -18 -4 -23 7 -5 3 -12 -13 -21 -20 -10 -28 -10 -40 -1 -10 8 -16
9 -21 1 -3 -5 1 -10 10 -10 9 0 13 -4 10 -10 -3 -5 -15 -10 -26 -10 -10 0 -19
-4 -19 -10 0 -5 -7 -10 -15 -10 -9 0 -33 -9 -55 -20 -25 -13 -40 -16 -42 -8
-3 7 -13 6 -33 -4 -17 -8 -42 -18 -57 -22 -16 -3 -28 -11 -28 -16 0 -6 -9 -10
-19 -10 -10 0 -21 -7 -25 -15 -3 -8 -18 -15 -33 -15 -25 -1 -26 -2 -10 -11 17
-10 15 -13 -15 -30 -18 -11 -50 -27 -70 -36 -21 -9 -38 -20 -38 -25 0 -4 -7
-8 -15 -8 -8 0 -15 -4 -15 -9 0 -10 -69 -51 -220 -129 -162 -83 -252 -134
-247 -138 5 -5 58 16 162 66 68 32 185 84 360 160 22 10 65 29 95 43 30 14
109 46 174 72 129 50 266 115 441 209 195 104 278 146 283 142 2 -3 -1 -28 -7
-58 -6 -29 -13 -80 -17 -114 -6 -56 -9 -62 -41 -79 -19 -11 -40 -20 -46 -21
-26 -4 -42 -9 -52 -17 -46 -37 -352 -193 -361 -185 -3 4 3 17 15 29 11 12 19
25 16 27 -8 9 -71 -9 -119 -33 -57 -29 -63 -30 -46 -10 7 8 21 15 30 15 18 0
60 43 60 61 0 11 -87 -23 -152 -60 l-51 -30 37 -7 38 -7 -41 -22 c-22 -13 -77
-38 -123 -56 -46 -19 -102 -44 -126 -56 -24 -13 -52 -23 -63 -23 -11 0 -17 -4
-14 -10 4 -6 -7 -10 -25 -10 -23 0 -31 -4 -27 -14 3 -8 -10 -22 -36 -36 -63
-34 -300 -151 -394 -195 -46 -21 -83 -42 -83 -46 0 -8 67 15 135 46 17 8 113
46 215 85 l184 71 28 -33 c15 -18 28 -36 28 -39 0 -6 -55 -36 -190 -106 -30
-15 -61 -34 -69 -42 -13 -12 -12 -13 9 -6 14 4 74 27 133 51 59 24 115 44 123
44 13 0 14 -12 9 -82 -4 -46 -10 -86 -14 -90 -3 -3 -37 -19 -75 -35 -39 -16
-72 -35 -74 -42 -3 -9 3 -9 24 2 16 8 99 38 184 67 141 47 346 127 618 241 56
24 101 48 99 53 -2 6 7 19 20 29 18 14 22 24 17 45 -4 15 -11 32 -15 38 -5 6
-4 25 1 42 7 26 6 32 -7 32 -9 0 -14 3 -10 6 6 6 -16 34 -27 34 -3 0 -6 -8 -6
-17 0 -15 -1 -15 -13 1 -12 17 -14 17 -31 -9 -17 -26 -17 -27 2 -32 11 -3 23
-16 26 -29 4 -15 14 -24 26 -24 20 0 25 -15 14 -44 -10 -25 -18 -19 -44 27
-28 49 -39 58 -62 51 -13 -4 -16 -1 -12 10 5 12 2 15 -12 10 -16 -5 -16 -4 -4
5 12 8 12 13 3 22 -10 10 -9 15 5 26 15 13 14 14 -13 8 -44 -9 -225 -97 -219
-107 3 -4 -2 -8 -11 -8 -9 0 -23 -6 -30 -14 -15 -15 -77 -14 -82 1 -2 5 61 41
139 80 369 183 554 273 559 273 3 0 9 -39 12 -88 7 -91 33 -235 48 -264 8 -15
13 -15 47 -4 42 15 42 16 17 126 -22 99 -30 257 -17 348 6 41 12 76 14 78 2 2
13 1 25 -2 19 -5 21 -15 26 -147 3 -78 13 -172 21 -210 13 -59 13 -72 1 -108
-18 -51 -18 -49 1 -49 23 0 114 31 114 39 0 4 -16 21 -35 37 -37 30 -65 101
-65 162 0 17 -4 34 -10 37 -13 8 -13 232 -1 240 5 3 13 19 16 37 9 38 97 215
126 252 11 14 49 39 82 55 59 28 174 71 188 71 3 0 14 -21 24 -47 25 -66 136
-292 146 -299 16 -9 10 -35 -27 -112 -49 -102 -64 -148 -64 -188 0 -38 1 -39
82 -22 45 9 61 9 70 0 9 -9 7 -12 -11 -12 -23 0 -131 -29 -131 -34 0 -2 7 -20
15 -40 17 -41 19 -41 118 -22 40 8 99 17 132 20 56 5 58 5 35 -9 -14 -8 -34
-14 -45 -15 -11 0 -60 -13 -110 -28 -85 -27 -89 -30 -90 -57 0 -25 -16 -43
-99 -112 -54 -46 -104 -83 -110 -83 -6 0 -42 20 -80 45 l-69 46 -41 -15 c-22
-8 -93 -31 -156 -51 -63 -20 -119 -40 -125 -44 -5 -4 -30 -13 -55 -20 -25 -7
-54 -17 -65 -22 -24 -10 -66 -8 -59 3 3 4 14 8 25 8 10 0 19 4 19 9 0 18 -158
-32 -197 -62 -17 -13 -6 -28 15 -20 9 3 15 4 12 0 -3 -3 -23 -12 -45 -20 -22
-8 -48 -18 -57 -22 -11 -4 -18 -3 -18 4 0 6 7 11 17 11 9 0 14 3 10 6 -12 13
-152 -39 -297 -110 -33 -16 -20 -17 25 -1 11 3 7 -1 -8 -10 -18 -10 -39 -14
-54 -10 -14 3 -22 2 -19 -4 3 -5 -3 -7 -13 -4 -11 3 -34 -2 -52 -11 -18 -9
-38 -16 -46 -16 -8 0 -12 -4 -8 -9 3 -5 1 -12 -5 -16 -5 -3 -10 -1 -10 5 0 6
-5 8 -10 5 -6 -4 -8 -10 -5 -14 2 -5 -15 -16 -38 -26 -23 -9 -51 -21 -62 -26
-11 -5 -49 -18 -85 -29 -36 -12 -80 -28 -97 -36 -69 -30 -100 -42 -173 -69
-80 -29 -106 -39 -142 -54 -13 -6 -39 -13 -58 -17 -19 -3 -39 -10 -45 -14 -5
-4 -29 -14 -53 -21 -23 -6 -42 -16 -42 -21 0 -4 -7 -8 -16 -8 -12 0 -224 -78
-329 -120 -11 -5 -63 -25 -115 -45 -105 -40 -156 -61 -182 -75 -10 -6 -25 -10
-33 -10 -8 0 -15 -5 -15 -11 0 -6 8 -9 18 -6 46 15 178 52 277 77 61 16 137
36 170 45 63 17 153 40 325 81 223 53 277 66 350 84 41 11 116 28 165 39 50
11 140 32 200 46 410 97 564 129 574 119 2 -2 -3 -4 -12 -4 -10 0 -17 -4 -17
-10 0 -5 -15 -13 -32 -19 -18 -5 -105 -35 -193 -66 -88 -31 -225 -79 -305
-107 -80 -27 -160 -56 -179 -64 -70 -29 -18 -24 119 12 139 36 143 36 177 20
20 -9 34 -18 32 -20 -16 -15 -352 -137 -357 -130 -12 17 -134 104 -145 104 -7
0 16 -26 51 -58 34 -32 62 -61 62 -64 0 -12 -114 -49 -134 -44 -12 3 -39 22
-61 41 -60 53 -66 42 -10 -17 28 -29 50 -54 50 -55 1 -2 41 9 185 51 47 14
126 36 175 49 114 32 402 115 435 126 14 5 61 19 105 31 44 12 89 26 100 31
11 4 90 27 175 50 85 22 215 59 289 80 133 39 133 39 160 20 35 -26 77 -71 65
-71 -6 0 -53 -9 -104 -20 -88 -19 -142 -25 -112 -13 6 2 12 9 12 14 0 9 -31 5
-125 -17 -88 -22 -92 -23 -76 -34 10 -6 2 -12 -28 -21 -33 -10 -44 -10 -50 -1
-6 9 -18 9 -52 -1 -24 -8 -47 -13 -51 -13 -3 1 -10 -2 -14 -7 -4 -4 -1 -7 6
-7 23 0 3 -11 -36 -20 -24 -6 -43 -5 -51 1 -8 7 -18 7 -31 0 -11 -6 -21 -8
-24 -6 -2 2 -56 -9 -119 -26 -62 -16 -172 -43 -244 -60 -166 -38 -265 -68
-265 -80 0 -6 7 -6 18 0 9 5 22 9 27 10 36 4 154 26 290 56 90 19 95 19 95 -5
0 -15 7 -20 28 -20 15 0 52 -9 82 -21 30 -11 63 -23 73 -26 28 -9 20 -19 -30
-42 -44 -19 -45 -20 -14 -15 19 4 41 13 49 21 8 8 21 12 28 9 8 -3 14 -2 14 3
0 15 54 -2 78 -24 l23 -22 -58 -21 c-32 -11 -83 -28 -113 -37 -30 -9 -71 -23
-90 -30 -19 -8 -86 -31 -147 -51 -62 -20 -113 -40 -113 -43 0 -3 -12 -7 -26
-7 -26 -2 -41 -10 -32 -19 2 -3 36 4 74 15 156 45 395 109 484 130 52 12 124
30 160 40 36 10 76 20 90 23 49 9 218 57 400 112 370 113 333 108 470 67 l55
-16 -40 -7 c-22 -4 -57 -5 -77 -2 -21 3 -50 1 -65 -5 -16 -5 -55 -16 -88 -23
-50 -10 -56 -13 -35 -19 l25 -7 -30 -7 c-16 -4 -42 -12 -57 -18 -16 -6 -39 -8
-52 -6 -17 4 -23 1 -19 -9 3 -8 -3 -13 -18 -13 -19 0 -21 2 -9 10 27 17 -22
12 -126 -15 -119 -31 -156 -44 -167 -62 -6 -10 -12 -11 -22 -3 -13 11 -45 4
-45 -10 0 -5 -9 -7 -19 -5 -22 4 -209 -41 -226 -54 -5 -5 -30 -11 -54 -15 -24
-4 -53 -12 -65 -18 -11 -7 -24 -11 -28 -10 -5 1 -8 -2 -8 -7 0 -5 -24 -14 -52
-19 -29 -6 -64 -13 -76 -16 -33 -7 -283 -85 -307 -96 -20 -8 -137 -37 -187
-47 -16 -3 -28 -9 -28 -14 0 -5 -12 -9 -27 -9 -14 0 -23 -3 -20 -6 4 -4 35 -1
69 5 66 13 407 93 468 111 29 8 148 36 335 80 263 62 489 110 499 107 13 -5
-12 -16 -129 -57 -111 -39 -253 -89 -280 -100 -11 -5 -58 -22 -105 -38 -89
-32 -313 -112 -389 -140 -46 -17 -40 -30 7 -16 15 4 32 8 37 10 69 18 230 66
265 79 25 9 77 24 115 35 39 10 99 28 135 39 36 10 112 33 169 51 57 17 108
29 114 27 9 -3 -180 -99 -300 -153 -23 -10 -43 -22 -43 -26 0 -12 38 -10 45 2
3 6 17 10 30 10 13 0 27 5 30 10 3 5 15 10 25 10 11 0 59 13 107 29 49 16 129
41 178 56 119 35 186 56 210 65 21 8 119 38 240 72 39 11 79 24 90 28 27 11
429 130 438 130 21 0 2 -18 -30 -29 -40 -14 -105 -44 -270 -122 -57 -27 -105
-49 -107 -49 -6 0 -126 -57 -146 -70 -8 -5 -30 -15 -47 -22 -18 -7 -33 -16
-33 -20 0 -10 6 -10 28 1 9 5 31 14 47 21 17 7 38 16 47 21 10 5 24 9 32 9 7
0 27 7 42 15 16 8 36 15 45 15 8 0 19 4 25 8 5 5 47 20 94 35 88 27 181 39
430 57 80 5 206 14 280 20 199 15 708 33 784 28 36 -2 66 -1 66 3 0 4 -18 14
-40 23 -22 9 -40 19 -40 23 1 5 48 44 105 88 57 44 104 85 104 90 0 6 -17 30
-38 55 l-39 45 -25 -23 c-17 -16 -27 -20 -32 -12 -4 7 -16 10 -26 7 -30 -8
-35 14 -8 35 36 29 321 290 429 394 52 51 111 105 130 122 19 17 32 34 28 37
-4 4 -33 -15 -65 -42 -163 -140 -418 -360 -493 -427 -101 -90 -128 -100 -47
-18 31 32 57 62 57 67 0 5 -9 18 -20 30 l-19 21 55 64 c31 36 81 92 111 124
30 33 66 75 81 93 l25 34 -104 99 c-150 141 -135 138 -224 50 -62 -61 -76 -71
-89 -61 -8 7 -12 19 -9 27 3 8 1 14 -5 14 -6 0 -13 -6 -15 -12 -3 -8 -6 -8 -6
-2 -1 11 77 99 206 235 l73 75 82 1 c46 1 113 6 150 12 65 11 98 7 98 -10 0
-4 -7 -6 -14 -3 -13 5 -114 -75 -124 -98 -2 -3 -19 -19 -38 -33 l-36 -27 -38
37 c-23 23 -40 33 -44 26 -4 -6 -1 -11 6 -11 7 -1 -5 -17 -27 -36 -35 -31 -38
-37 -22 -45 9 -6 17 -15 17 -20 0 -6 -4 -8 -9 -5 -5 4 -8 -1 -7 -9 3 -23 45
-57 65 -52 12 3 17 -2 17 -17 -1 -14 4 -20 14 -18 8 2 12 1 8 -3 -4 -4 2 -16
12 -27 15 -17 27 -20 60 -15 46 6 48 2 18 -30 -26 -28 -18 -42 10 -16 10 10
30 27 43 37 28 22 97 86 223 204 l88 83 -56 52 c-31 29 -56 57 -56 62 0 6 20
21 44 33 24 13 54 34 66 47 l21 23 61 -41 60 -40 136 7 c277 14 329 27 405
101 l35 34 23 -26 c30 -32 51 -43 114 -60 51 -14 57 -13 308 17 89 11 134 30
184 77 20 18 39 33 43 33 3 0 24 -13 46 -30 21 -16 47 -30 56 -30 9 0 20 -5
24 -11 13 -21 371 8 423 34 26 13 37 14 48 6 14 -13 56 -11 373 16 96 9 234
20 305 25 72 6 175 15 230 20 55 6 115 10 133 10 28 0 32 3 32 25 0 30 16 33
23 4 5 -20 10 -21 114 -14 59 4 135 11 168 16 33 5 77 9 98 9 20 0 37 2 37 6
0 3 -7 37 -15 77 -9 40 -20 97 -26 127 -6 30 -15 65 -20 78 -5 13 -9 34 -9 47
0 13 -5 35 -11 49 -10 22 -8 28 18 50 25 21 56 72 84 141 9 22 13 54 30 242
14 144 6 188 -43 243 -53 60 -86 74 -183 78 -88 4 -276 -8 -465 -28 -52 -6
-106 -8 -120 -4 -24 6 -24 7 10 19 33 11 36 15 43 66 12 88 26 189 36 274 6
44 15 118 21 165 18 141 29 231 40 320 5 47 14 116 19 155 5 38 8 71 6 73 -2
2 -59 -1 -127 -8 -68 -6 -158 -14 -200 -17 -66 -5 -78 -9 -84 -26 -6 -19 -7
-19 -16 -3 -9 15 -22 17 -116 11 -158 -9 -197 -28 -226 -107 -12 -31 -24 -60
-28 -63 -3 -4 -9 28 -13 71 l-8 77 -66 -7 c-36 -4 -113 -11 -171 -16 -159 -14
-153 -11 -179 -88 -34 -98 -36 -101 -54 -65 -24 45 -91 101 -137 113 -41 11
-162 5 -435 -20 -113 -11 -135 -17 -135 -41 0 -19 -1 -19 -32 -2 -40 21 -119
22 -308 5 -280 -26 -536 -48 -670 -57 -94 -7 -172 -26 -198 -47 -25 -21 -46
-73 -59 -148 -37 -213 -80 -610 -74 -683 6 -68 74 -160 129 -174 36 -9 9 -21
-73 -32 -167 -24 -241 -130 -280 -405 -18 -119 -16 -135 19 -218 6 -12 0 -18
-23 -23 -24 -5 -33 -14 -41 -43 -5 -20 -10 -54 -10 -75 0 -32 -3 -37 -18 -33
-13 4 -38 -15 -92 -69 -57 -57 -77 -72 -87 -63 -7 6 -13 15 -13 21 0 9 151
201 170 217 3 3 18 21 33 41 30 40 34 70 12 93 -21 21 -19 29 5 16 16 -8 18
-8 14 4 -8 21 -36 29 -47 14 -6 -9 -7 -8 -3 5 3 10 6 23 6 28 0 5 5 9 10 9 6
0 10 -6 10 -14 0 -8 7 -16 15 -20 11 -4 15 2 15 27 0 25 -3 29 -11 17 -8 -12
-12 -12 -16 -2 -3 9 -9 10 -17 3 -16 -13 -35 0 -41 29 -3 14 2 28 13 37 16 12
16 13 -1 7 -12 -5 -16 -2 -12 9 4 8 -1 17 -11 21 -11 4 -15 2 -11 -6 6 -18
-10 -58 -23 -58 -6 0 -9 4 -6 9 4 5 1 11 -5 13 -14 5 5 39 113 208 26 41 67
102 90 135 23 33 64 93 92 134 l49 75 -44 38 c-24 21 -75 59 -112 84 l-69 45
-32 -37 c-29 -34 -34 -36 -54 -23 -19 12 -24 11 -36 -1 -15 -16 -176 -268
-176 -276 0 -8 -80 -124 -86 -124 -3 0 -2 9 1 20 4 11 8 34 10 50 4 27 2 29
-16 17 -16 -10 -21 -9 -29 3 -5 8 -8 20 -5 27 2 7 0 15 -6 18 -5 4 -7 11 -4
16 4 5 4 9 1 9 -3 0 -22 -29 -43 -65 -20 -36 -41 -65 -46 -65 -14 0 -67 30
-67 38 0 5 11 32 25 60 14 29 25 54 25 57 0 3 16 39 35 81 19 41 35 77 35 80
0 2 19 46 43 97 24 50 49 108 57 127 7 19 17 39 22 45 4 5 8 14 8 21 0 7 17
50 39 96 49 106 79 172 102 226 l19 43 -25 11 c-16 7 -25 19 -25 34 0 15 -11
29 -30 40 -21 13 -27 21 -19 30 8 10 0 18 -33 35 -24 12 -44 23 -46 24 -3 3
24 80 37 105 5 9 12 31 16 50 6 33 6 34 -8 14 -9 -11 -29 -50 -46 -87 -17 -37
-33 -67 -36 -67 -3 0 -25 9 -48 20 -38 19 -43 19 -54 4 -6 -8 -20 -14 -30 -13
-10 2 -27 -2 -39 -8 -12 -7 -25 -8 -35 -2 -31 20 -36 13 -84 -106 -9 -22 -22
-53 -30 -70 -7 -16 -26 -64 -43 -105 -48 -119 -95 -216 -99 -203 -2 7 0 20 5
30 20 37 79 340 68 350 -3 3 -39 8 -79 11 l-74 4 -25 -44 c-18 -33 -30 -82
-47 -194 -12 -82 -30 -205 -41 -274 -10 -69 -19 -133 -20 -142 0 -12 -8 -18
-23 -18 l-22 0 0 227 0 228 -65 10 -65 10 3 80 c1 44 7 153 13 243 6 90 10
164 8 166 -2 2 -28 6 -56 10 l-53 7 0 -151 c0 -113 -3 -150 -12 -151 -7 -1
-22 -2 -33 -3 -17 -1 -21 -11 -27 -71 -8 -76 -16 -142 -24 -192 -5 -31 -8 -33
-44 -33 -25 0 -40 -5 -41 -12 -2 -50 -56 223 -106 537 -23 149 -26 159 -48
164 -11 2 -24 9 -28 17 -4 8 -19 14 -32 14 -21 0 -24 5 -27 48 -2 34 -7 47
-18 47 -11 0 -16 -13 -18 -47 l-3 -48 -40 0 c-32 0 -39 -3 -39 -20 0 -13 -7
-20 -20 -20 -19 0 -24 11 -32 65 -2 13 -12 21 -30 23 -15 2 -31 9 -36 15 -9
10 -44 165 -83 366 -12 60 -19 63 -19 9z m317 -588 c26 -5 65 -12 86 -15 24
-4 37 -11 37 -21 0 -12 -7 -14 -27 -10 -16 3 -50 8 -78 12 -61 8 -95 20 -95
34 0 13 16 13 77 0z m-237 -25 c0 -20 -5 -25 -25 -25 -20 0 -25 5 -25 25 0 20
5 25 25 25 20 0 25 -5 25 -25z m5476 -82 c-6 -82 -11 -132 -36 -318 -5 -38
-14 -108 -19 -155 -30 -249 -34 -271 -50 -279 -9 -5 -45 -10 -80 -12 l-64 -4
-18 45 c-9 25 -41 118 -69 208 -28 89 -56 162 -61 162 -5 0 -9 -22 -9 -49 0
-27 -4 -85 -10 -128 -28 -223 -33 -252 -46 -257 -7 -3 -48 -8 -90 -12 l-77 -7
8 39 c4 21 11 77 16 124 5 47 13 121 19 165 6 44 15 121 20 170 27 248 41 340
54 352 4 4 41 7 82 8 l76 0 22 -70 c13 -38 38 -117 55 -175 18 -58 39 -121 46
-140 13 -34 13 -34 19 -10 3 14 7 52 9 85 8 107 37 319 45 327 6 6 42 10 136
16 l29 2 -7 -87z m-5857 26 c16 -47 14 -59 -12 -59 -24 0 -53 49 -43 75 10 27
43 17 55 -16z m228 -1 c-3 -8 -6 -5 -6 6 -1 11 2 17 5 13 3 -3 4 -12 1 -19z
m246 2 c6 -23 -16 -45 -38 -36 -15 5 -21 37 -8 49 13 14 41 6 46 -13z m166 -1
c103 -16 111 -18 111 -35 0 -12 -8 -14 -46 -8 -88 13 -147 29 -152 42 -5 15 3
15 87 1z m-735 -33 c3 -13 8 -31 12 -39 3 -9 -3 -16 -16 -20 -15 -4 -24 2 -35
23 -22 42 -19 60 9 60 17 0 26 -7 30 -24z m5180 -8 c3 -18 8 -62 11 -98 3 -36
10 -99 15 -140 4 -41 15 -138 24 -215 9 -77 20 -162 25 -190 6 -27 12 -71 16
-97 l6 -47 -43 -6 c-24 -4 -65 -7 -93 -8 l-50 -2 -5 69 -5 70 -55 -3 c-30 -2
-75 -6 -100 -10 l-44 -6 -21 -70 -21 -70 -82 -9 c-46 -5 -85 -6 -88 -3 -7 7
23 99 92 282 31 83 62 170 70 195 8 25 18 54 23 65 8 17 39 99 100 265 15 41
20 46 56 51 22 3 68 7 102 8 l62 1 5 -32z m-516 -24 c42 -29 55 -70 47 -153
-9 -108 -31 -182 -62 -207 l-25 -22 21 -21 c26 -26 28 -85 6 -221 -26 -160
-78 -203 -266 -220 -199 -18 -289 -23 -289 -15 0 4 6 53 14 109 8 55 22 160
31 231 9 72 23 177 31 235 9 58 20 139 25 180 6 41 14 79 19 84 5 5 67 13 137
18 70 5 129 11 132 13 2 3 39 5 80 5 53 0 83 -5 99 -16z m-4083 -29 c0 -22
-31 -33 -47 -17 -17 17 -2 39 24 38 16 -1 23 -7 23 -21z m207 9 c51 -6 90 -26
76 -39 -6 -6 -183 21 -197 29 -25 16 -10 28 27 23 20 -4 63 -9 94 -13z m3213
-25 c34 -9 50 -20 66 -46 23 -37 23 -39 0 -249 -11 -94 -41 -154 -90 -175 -36
-16 -36 -13 -12 -115 41 -171 51 -225 46 -234 -6 -9 -55 -18 -129 -22 l-49 -3
-28 143 c-36 182 -36 182 -63 182 -38 0 -53 -21 -60 -85 -13 -135 -25 -221
-31 -237 -7 -17 -23 -22 -124 -33 l-54 -6 7 78 c4 43 13 119 21 168 7 50 18
133 25 185 6 52 15 124 20 160 5 36 12 104 16 151 3 48 10 92 15 100 6 10 60
19 186 30 98 9 182 17 186 18 5 0 28 -4 52 -10z m-3647 -30 c-3 -8 -7 -3 -11
10 -4 17 -3 21 5 13 5 -5 8 -16 6 -23z m476 -28 c22 -3 41 -12 44 -20 4 -11
-7 -12 -54 -7 -130 15 -144 18 -144 33 0 15 38 13 154 -6z m2638 1 c-2 -12
-12 -101 -42 -387 -42 -393 -64 -436 -242 -456 -218 -24 -234 -24 -272 4 -54
42 -60 75 -41 219 19 141 33 240 39 283 3 17 10 80 16 140 18 166 20 171 83
179 29 3 67 6 86 6 33 0 33 0 26 -37 -4 -21 -11 -72 -15 -113 -5 -41 -14 -115
-20 -165 -6 -49 -15 -128 -20 -175 -6 -47 -13 -107 -16 -134 l-7 -49 48 6 c26
4 62 7 80 7 31 0 34 3 44 48 6 26 18 106 27 177 8 72 20 164 25 205 5 41 12
104 15 140 9 112 7 109 72 113 91 6 117 3 114 -11z m-3105 -29 c-3 -10 -5 -4
-5 12 0 17 2 24 5 18 2 -7 2 -21 0 -30z m-457 -9 c15 -38 12 -51 -10 -57 -16
-4 -24 2 -35 30 -17 40 -13 53 16 53 12 0 23 -10 29 -26z m270 -19 c0 -8 6
-24 13 -35 10 -17 9 -22 -3 -30 -8 -5 -20 -10 -26 -10 -13 0 -46 68 -39 81 10
15 55 11 55 -6z m-463 -17 c-3 -8 -6 -5 -6 6 -1 11 2 17 5 13 3 -3 4 -12 1
-19z m891 -12 c3 -24 0 -27 -20 -24 -26 3 -37 36 -16 49 20 13 33 5 36 -25z
m200 12 c50 -7 82 -16 82 -23 0 -21 -190 1 -198 23 -5 15 11 15 116 0z m-775
-59 c15 -39 15 -40 -6 -48 -29 -11 -33 -8 -47 35 -10 30 -10 38 1 45 25 16 36
9 52 -32z m1876 32 c10 -7 11 -13 2 -30 -13 -24 -33 -27 -50 -7 -25 30 13 59
48 37z m92 -41 c11 0 11 -11 0 -29 -6 -9 -18 -11 -35 -7 -23 6 -25 9 -15 27 6
12 17 18 26 15 8 -3 19 -6 24 -6z m-1123 -13 c13 1 22 -5 22 -14 0 -13 -13
-14 -87 -8 -93 7 -103 10 -103 26 0 7 26 8 73 3 39 -5 82 -8 95 -7z m985 -30
c15 -10 16 -15 5 -29 -10 -12 -19 -14 -36 -7 -19 7 -21 12 -12 29 12 23 20 25
43 7z m-1718 -33 c14 -30 15 -38 4 -45 -8 -5 -18 -7 -23 -6 -14 4 -29 55 -22
72 9 24 23 17 41 -21z m500 -19 c0 -14 -8 -21 -27 -23 -22 -3 -28 1 -28 16 0
25 10 33 35 30 12 -2 20 -10 20 -23z m1316 15 c12 0 11 -21 0 -39 -8 -12 -14
-13 -36 -3 -22 10 -24 15 -15 33 7 12 17 18 27 15 8 -3 19 -6 24 -6z m-1080
-10 c16 0 30 -7 33 -16 6 -15 -2 -16 -71 -9 -96 8 -123 14 -123 28 0 6 23 8
68 4 37 -4 79 -7 93 -7z m-1079 -42 c-7 -7 -12 -8 -12 -2 0 14 12 26 19 19 2
-3 -1 -11 -7 -17z m2032 9 c25 -19 6 -58 -24 -50 -26 7 -33 18 -25 43 7 23 24
25 49 7z m-1566 -30 c17 -48 15 -67 -7 -67 -12 0 -26 13 -35 32 -25 49 -22 57
24 67 4 0 11 -14 18 -32z m-456 -19 c-7 -7 -12 -8 -12 -2 0 14 12 26 19 19 2
-3 -1 -11 -7 -17z m846 -4 c4 -27 -26 -40 -46 -20 -13 13 -13 18 -2 31 18 21
44 15 48 -11z m265 7 c4 -1 7 -7 7 -15 0 -12 -12 -14 -57 -10 -132 11 -157 17
-139 35 4 3 134 -4 189 -10z m996 5 c13 -15 5 -46 -13 -46 -24 0 -38 18 -31
39 7 24 27 27 44 7z m220 5 c15 -9 7 -51 -10 -51 -25 0 -47 21 -42 40 6 21 28
26 52 11z m-2020 -67 c11 -30 11 -38 0 -45 -25 -16 -37 -9 -52 29 -17 43 -14
52 17 52 16 0 25 -9 35 -36z m1680 17 c18 -12 4 -54 -16 -47 -8 3 -19 6 -24 6
-10 0 -12 33 -2 43 9 9 25 8 42 -2z m-686 -19 c-45 -4 -53 -20 -52 -103 3
-175 1 -233 -10 -237 -6 -2 -14 -4 -18 -5 -6 -2 -41 217 -43 266 0 9 6 17 13
17 9 0 14 -14 15 -42 3 -75 12 -53 12 30 0 68 3 82 16 82 8 0 12 -4 9 -10 -3
-5 -1 -10 4 -10 6 0 11 4 11 9 0 11 50 19 65 11 6 -3 -4 -6 -22 -8z m-185 -18
c25 -7 11 -24 -22 -24 -80 0 -156 13 -156 27 0 11 16 12 83 7 45 -3 88 -7 95
-10z m1166 5 c21 -10 23 -15 15 -30 -18 -34 -66 -16 -54 20 7 25 7 24 39 10z
m-1417 -15 c6 -16 -11 -34 -33 -34 -14 0 -26 28 -18 41 9 15 44 10 51 -7z
m310 -6 c-3 -8 -6 -5 -6 6 -1 11 2 17 5 13 3 -3 4 -12 1 -19z m-751 -43 c12
-38 9 -45 -16 -45 -19 0 -46 53 -35 69 14 23 40 11 51 -24z m1745 15 c14 0 11
-26 -5 -39 -11 -9 -20 -10 -35 -1 -18 9 -19 14 -10 31 6 12 17 18 26 15 8 -3
19 -6 24 -6z m-704 -34 c-4 -9 -11 -16 -17 -16 -17 0 -24 31 -9 41 18 11 34
-5 26 -25z m491 22 c11 -11 -1 -48 -16 -48 -20 0 -43 27 -36 43 7 19 35 22 52
5z m-158 -54 c-11 -27 -18 -37 -15 -22 8 40 25 82 31 76 2 -3 -5 -27 -16 -54z
m-662 29 c3 -10 -20 -13 -92 -13 -80 0 -96 3 -96 15 0 13 15 15 92 13 62 -2
93 -7 96 -15z m-260 -15 c-2 -17 -10 -23 -28 -23 -18 0 -26 6 -28 23 -3 19 1
22 28 22 27 0 31 -3 28 -22z m1376 9 c20 -15 12 -47 -13 -47 -29 0 -44 16 -36
39 7 24 23 27 49 8z m-207 -12 c1 -5 -1 -16 -6 -24 -12 -19 -53 3 -44 25 6 16
44 16 50 -1z m-132 -39 c16 -12 17 -16 6 -30 -15 -18 -21 -19 -40 -7 -8 5 -11
16 -6 30 8 25 14 26 40 7z m216 4 c15 0 10 -30 -6 -36 -8 -4 -22 -1 -30 6 -17
14 -8 43 12 36 8 -3 19 -6 24 -6z m-981 -25 c0 -12 -17 -15 -90 -15 -73 0 -90
3 -90 15 0 12 17 15 90 15 73 0 90 -3 90 -15z m-257 -7 c7 -23 -4 -38 -29 -38
-17 0 -24 6 -24 18 0 10 3 22 7 25 11 12 41 8 46 -5z m625 -27 c-5 -24 -38
-27 -38 -3 0 10 3 21 6 25 11 11 35 -5 32 -22z m491 16 c8 -10 7 -18 -2 -31
-11 -14 -15 -15 -31 -3 -12 9 -17 20 -13 31 8 19 30 21 46 3z m-1614 -43 c7
-40 7 -41 -18 -46 -14 -2 -22 7 -31 34 -15 42 -12 48 20 48 17 0 23 -7 29 -36z
m770 -19 c0 -6 -39 -11 -92 -13 -79 -2 -93 0 -93 13 0 13 14 15 93 13 53 -2
92 -7 92 -13z m803 -14 c23 -14 10 -46 -18 -43 -31 3 -33 6 -25 31 7 22 21 26
43 12z m-1452 -57 c11 -33 10 -36 -9 -44 -18 -6 -24 -3 -34 19 -17 37 -16 59
5 63 22 5 23 4 38 -38z m1207 6 c-3 -11 -9 -20 -15 -20 -5 0 -4 9 2 20 6 11
12 20 14 20 2 0 2 -9 -1 -20z m344 0 c5 -25 -11 -40 -35 -33 -21 5 -30 32 -15
47 12 12 48 2 50 -14z m-602 -11 c0 -7 -8 -15 -17 -17 -18 -3 -25 18 -11 32
10 10 28 1 28 -15z m-550 -19 c0 -18 -6 -26 -22 -28 -18 -3 -23 1 -23 21 0 28
9 39 30 35 9 -2 15 -14 15 -28z m265 15 c0 -12 -17 -15 -95 -15 -87 0 -107 5
-88 23 3 4 46 7 95 7 72 0 88 -3 88 -15z m760 -40 c0 -18 -14 -27 -34 -19 -16
6 -22 35 -10 47 10 10 44 -12 44 -28z m204 29 c17 -6 22 -39 8 -48 -16 -10
-52 6 -52 23 0 29 14 37 44 25z m-684 -39 c0 -8 -6 -15 -14 -15 -17 0 -28 14
-19 24 12 12 33 6 33 -9z m-830 -19 c0 -14 5 -28 10 -31 14 -9 -7 -35 -26 -35
-19 0 -44 61 -31 78 17 22 47 14 47 -12z m1188 -14 c-4 -19 -27 -26 -47 -13
-10 7 -11 13 -2 30 10 18 15 19 32 10 11 -5 19 -18 17 -27z m207 23 c17 -14
18 -17 3 -31 -12 -13 -20 -14 -37 -5 -17 10 -19 15 -11 31 13 24 19 24 45 5z
m89 -38 c19 -14 13 -47 -9 -47 -26 0 -45 12 -45 29 0 33 23 40 54 18z m4665
-31 c19 -20 26 -38 29 -83 5 -77 -23 -305 -44 -349 -15 -32 -55 -72 -90 -92
-14 -8 -11 -31 21 -186 20 -97 35 -179 34 -180 -2 -2 -47 -7 -100 -11 l-96 -7
-12 69 c-11 62 -35 192 -47 251 -4 21 -9 23 -52 20 l-47 -3 -12 -90 c-6 -49
-17 -129 -24 -177 l-13 -87 -65 -6 c-36 -3 -79 -9 -95 -12 -28 -5 -28 -4 -22
33 5 37 23 183 82 674 15 124 30 229 34 233 4 4 87 14 186 22 98 9 186 16 194
18 38 7 115 -14 139 -37z m-6301 -10 c14 -44 10 -56 -24 -56 -18 0 -24 5 -24
21 0 11 -5 29 -10 39 -8 15 -6 21 7 29 26 15 37 9 51 -33z m1427 19 c0 -15 -6
-19 -24 -17 -31 3 -35 7 -27 27 9 24 51 15 51 -10z m-2125 -5 c0 -11 -6 -20
-14 -20 -18 0 -29 16 -21 30 11 18 35 11 35 -10z m2218 -34 c5 -23 -26 -32
-45 -13 -23 23 -10 49 19 38 13 -4 24 -16 26 -25z m-2270 1 c2 -10 -3 -17 -12
-17 -18 0 -29 16 -21 31 9 14 29 6 33 -14z m2051 14 c14 -9 7 -51 -9 -51 -21
0 -40 14 -40 29 0 30 21 40 49 22z m4360 -28 c0 -21 -4 -60 -7 -88 l-7 -50
-55 -6 c-30 -4 -104 -12 -165 -18 -60 -7 -113 -15 -117 -19 -9 -9 -31 -173
-24 -180 3 -3 59 -1 123 5 65 5 121 8 124 7 8 -4 -12 -157 -22 -168 -11 -12
-21 -14 -141 -22 -53 -4 -101 -10 -107 -14 -15 -8 -37 -178 -25 -190 5 -5 79
-3 169 5 88 7 162 12 164 10 2 -2 -2 -42 -9 -88 l-12 -85 -46 -6 c-26 -3 -139
-13 -252 -21 -113 -9 -212 -17 -220 -18 -17 -2 -17 9 -1 131 12 86 24 191 41
332 18 152 60 473 63 476 5 5 402 41 465 43 l62 1 -1 -37z m-6464 -13 c0 -8
-8 -16 -17 -18 -13 -2 -18 3 -18 18 0 15 5 20 18 18 9 -2 17 -10 17 -18z m135
6 c0 -8 -5 -18 -11 -22 -14 -8 -33 11 -25 25 10 16 36 13 36 -3z m1343 -12
c-1 -10 -6 -35 -10 -54 -7 -29 -14 -35 -38 -38 -17 -1 -39 -7 -50 -12 -11 -5
-36 -11 -55 -13 -19 -3 -55 -10 -79 -16 -36 -10 -57 -9 -115 5 -115 27 -116
27 -65 51 93 43 192 70 334 91 73 11 80 10 78 -14z m197 11 c143 -25 211 -46
318 -98 82 -40 102 -60 102 -105 0 -15 -14 -17 -106 -19 -61 -1 -111 -6 -117
-12 -19 -19 -50 -12 -142 34 -49 24 -121 55 -160 68 -78 27 -86 40 -66 109 11
35 15 38 49 38 20 0 75 -7 122 -15z m513 -8 c15 -10 16 -15 5 -30 -16 -22 -48
-13 -48 12 0 32 16 38 43 18z m-2116 -33 c-9 -9 -28 6 -21 18 4 6 10 6 17 -1
6 -6 8 -13 4 -17z m5663 8 c22 -10 42 -32 54 -56 17 -36 18 -47 8 -123 -6 -46
-13 -87 -16 -92 -6 -9 -184 -37 -191 -29 -2 2 -1 27 4 56 4 28 5 56 1 62 -5 8
-31 9 -84 4 -92 -8 -93 -9 -106 -136 -6 -51 -19 -156 -30 -233 -11 -77 -20
-158 -20 -179 l0 -39 81 6 c45 3 86 10 91 15 5 5 12 35 15 66 7 68 10 70 126
80 60 5 77 4 77 -6 0 -68 -25 -189 -46 -225 -50 -86 -112 -109 -323 -119
l-150 -7 -36 36 c-46 46 -47 63 -15 307 10 80 23 190 30 245 27 237 41 282
107 328 69 47 353 74 423 39z m-3440 -22 c0 -3 -6 -14 -13 -24 -11 -16 -17
-17 -36 -7 -12 7 -20 15 -18 19 2 4 7 15 10 24 5 15 10 16 32 6 14 -6 25 -14
25 -18z m608 2 c3 -16 -2 -22 -17 -22 -24 0 -33 13 -25 35 9 23 38 14 42 -13z
m-2878 -13 c0 -5 -7 -9 -15 -9 -15 0 -20 12 -9 23 8 8 24 -1 24 -14z m248 -17
c5 -17 -27 -27 -41 -13 -9 9 -8 14 3 21 18 11 32 8 38 -8z m2690 -10 c2 -14
-2 -22 -12 -22 -19 0 -29 17 -22 36 8 22 30 12 34 -14z m2084 12 c61 -29 73
-57 71 -161 -2 -122 -6 -129 -90 -137 -37 -3 -79 -9 -92 -13 l-23 -6 7 73 7
73 -73 -7 c-120 -11 -111 0 -129 -161 -5 -49 -14 -121 -20 -160 -20 -142 -31
-249 -25 -262 4 -12 20 -13 82 -8 43 4 81 9 84 11 3 2 11 35 18 73 l13 70 56
6 c31 3 74 8 95 10 44 6 43 9 23 -116 -16 -99 -32 -136 -78 -174 -48 -41 -70
-46 -233 -61 -162 -15 -196 -11 -233 29 -39 42 -43 69 -27 195 9 64 19 140 25
167 5 28 14 95 20 150 26 220 37 276 68 319 43 59 88 78 216 92 156 17 201 16
238 -2z m-2677 -23 c0 -29 -14 -35 -38 -17 -23 18 -12 48 17 44 15 -2 21 -10
21 -27z m-2160 -1 c7 -11 -12 -40 -25 -40 -15 0 -21 33 -8 42 17 11 26 10 33
-2z m2652 -6 c3 -8 1 -20 -6 -27 -14 -14 -47 15 -37 32 10 16 36 13 43 -5z
m-2807 -14 c0 -23 -25 -27 -33 -6 -7 16 1 26 20 26 7 0 13 -9 13 -20z m4328
-16 c57 -37 75 -115 53 -231 -5 -26 -15 -93 -21 -148 -27 -219 -59 -413 -73
-441 -42 -80 -105 -110 -257 -120 -220 -15 -227 -14 -266 28 -41 46 -42 57
-14 288 56 467 61 495 102 545 44 53 89 71 213 84 194 21 224 20 263 -5z
m-4078 8 c0 -10 -22 -32 -32 -32 -4 0 -8 9 -8 20 0 13 7 20 20 20 11 0 20 -4
20 -8z m1252 -23 c46 -16 120 -48 164 -69 88 -42 95 -51 130 -160 9 -30 20
-64 25 -75 4 -11 15 -55 24 -98 l18 -78 -24 -25 c-13 -14 -86 -80 -162 -147
-136 -120 -148 -127 -192 -107 -78 34 -329 58 -395 37 -25 -8 -28 -4 -74 88
-84 170 -126 264 -126 284 0 10 7 24 15 31 8 7 15 17 15 22 0 17 117 163 176
219 61 57 55 55 229 97 66 16 90 13 177 -19z m1268 -25 c0 -21 -21 -27 -38
-11 -13 13 -13 19 -2 32 10 12 16 13 26 4 8 -6 14 -17 14 -25z m-2736 0 c8
-22 8 -24 -8 -24 -15 0 -28 24 -19 34 11 10 21 7 27 -10z m143 0 c5 -14 -11
-33 -28 -34 -14 0 -19 34 -7 42 19 12 28 10 35 -8z m2752 2 c11 -13 5 -46 -8
-46 -19 0 -42 27 -35 43 7 20 27 22 43 3z m-2651 -19 c2 -12 -3 -17 -17 -17
-12 0 -21 6 -21 13 0 31 32 34 38 4z m1865 -24 c95 -73 227 -220 227 -253 0
-25 -40 -6 -78 39 -57 66 -142 147 -186 177 -20 14 -36 31 -36 39 0 7 -3 20
-6 29 -11 28 16 17 79 -31z m391 38 c3 -5 -1 -14 -8 -20 -12 -10 -13 -8 -9 8
6 23 9 25 17 12z m31 -1 c3 -5 1 -10 -4 -10 -6 0 -11 5 -11 10 0 6 2 10 4 10
3 0 8 -4 11 -10z m1083 -16 c41 -28 55 -71 48 -144 -12 -132 -7 -125 -94 -138
-120 -19 -114 -22 -106 48 7 67 12 64 -76 61 -94 -4 -94 -3 -105 -93 l-7 -55
74 -28 c250 -93 263 -101 263 -171 0 -75 -25 -245 -41 -284 -37 -88 -98 -119
-259 -133 -215 -18 -246 -12 -279 57 -17 35 -18 48 -8 138 6 55 12 101 14 103
2 2 47 7 101 11 l98 7 -5 -24 c-3 -13 -7 -42 -8 -64 -3 -39 -2 -40 32 -43 19
-2 59 -1 87 3 59 7 57 5 67 107 6 56 5 58 -23 73 -16 8 -85 33 -152 55 -67 22
-131 48 -141 57 -13 12 -18 30 -18 67 1 83 26 249 43 282 23 44 81 92 119 99
150 27 344 31 376 9z m-1155 -38 c-4 -6 -8 -5 -11 2 -2 7 -11 12 -20 13 -13 0
-13 2 3 8 21 9 38 -6 28 -23z m232 14 c4 -6 1 -18 -6 -26 -11 -13 -14 -13 -27
0 -8 8 -11 19 -8 25 9 14 33 14 41 1z m-2659 -11 c10 -17 -13 -36 -27 -22 -12
12 -4 33 11 33 5 0 12 -5 16 -11z m2824 -14 c9 -11 10 -19 3 -26 -15 -15 -54
7 -47 26 8 19 28 19 44 0z m-2737 -12 c9 -9 -13 -34 -24 -27 -14 8 -11 34 4
34 8 0 17 -3 20 -7z m2394 -21 c-8 -10 -25 -36 -38 -60 -12 -23 -28 -41 -35
-38 -8 3 -10 -3 -6 -17 5 -20 4 -20 -11 -8 -35 28 -14 100 34 118 26 10 29 10
18 -3 -6 -8 -9 -17 -6 -21 4 -3 14 8 24 25 10 17 21 28 26 25 5 -3 2 -12 -6
-21z m240 12 c9 -23 -13 -40 -32 -24 -12 10 -13 16 -4 26 15 18 28 18 36 -2z
m-107 -19 c10 -12 10 -19 2 -27 -15 -15 -48 14 -38 31 10 15 21 14 36 -4z
m-2584 -6 c3 -6 1 -16 -5 -22 -9 -9 -14 -8 -21 3 -9 15 -4 30 10 30 5 0 12 -5
16 -11z m122 -22 c2 -11 -3 -17 -16 -17 -11 0 -23 -6 -25 -12 -4 -10 -8 -9
-16 2 -16 22 -13 30 9 30 11 0 20 5 20 11 0 17 25 4 28 -14z m2624 -19 c-9 -9
-15 -9 -23 -1 -7 7 -9 20 -5 29 6 16 8 16 23 1 13 -13 15 -19 5 -29z m-96 -17
c-9 -14 -33 -14 -41 -1 -4 6 -1 18 6 26 11 13 14 13 27 0 8 -8 11 -19 8 -25z
m-2610 -2 c10 -17 -13 -36 -27 -22 -12 12 -4 33 11 33 5 0 12 -5 16 -11z
m2504 -9 c0 -11 -6 -20 -14 -20 -18 0 -29 16 -21 30 11 18 35 11 35 -10z m166
-29 c-9 -13 -16 -14 -35 -2 -12 8 -13 12 -1 26 12 14 15 14 28 1 8 -8 11 -19
8 -25z m-2414 3 c-35 -24 -193 -95 -204 -92 -5 2 1 9 14 15 12 6 59 29 103 51
83 41 127 54 87 26z m2305 -9 c3 -9 3 -19 -1 -22 -8 -9 -37 18 -30 28 8 14 24
11 31 -6z m-97 -25 c0 -23 -10 -26 -28 -8 -18 18 -15 28 8 28 13 0 20 -7 20
-20z m158 -23 c4 -19 -6 -21 -27 -8 -16 10 -5 34 12 28 7 -2 13 -11 15 -20z
m-2162 -24 c-7 -21 -16 -64 -20 -96 -6 -43 -25 -93 -72 -185 -35 -69 -64 -133
-64 -142 0 -8 -4 -22 -10 -30 -7 -12 -12 -12 -29 4 -27 25 -27 28 10 138 36
107 73 185 135 281 48 75 70 88 50 30z m2059 9 c0 -18 -20 -15 -23 4 -3 10 1
15 10 12 7 -3 13 -10 13 -16z m61 -33 c10 -17 -13 -36 -27 -22 -12 12 -4 33
11 33 5 0 12 -5 16 -11z m-312 -28 c46 -51 117 -232 147 -377 22 -106 32 -315
16 -331 -11 -11 -121 -3 -129 10 -4 6 -12 43 -18 82 -14 81 -50 194 -89 280
-28 60 -28 61 -14 125 9 36 17 102 20 146 5 78 6 82 29 82 13 0 30 -8 38 -17z
m221 9 c4 -6 1 -18 -6 -26 -11 -13 -14 -13 -27 0 -8 8 -11 19 -8 25 9 14 33
14 41 1z m178 -20 c-3 -12 -8 -19 -11 -16 -5 6 5 36 12 36 2 0 2 -9 -1 -20z
m-127 -25 c3 -8 3 -19 0 -24 -10 -16 -36 -1 -36 20 0 22 28 26 36 4z m-93 -32
c-5 -13 -7 -13 -21 0 -8 8 -11 20 -7 27 10 16 35 -7 28 -27z m194 13 c-4 -10
-1 -13 8 -10 12 5 11 -1 -2 -28 -9 -18 -21 -37 -25 -43 -50 -60 -49 -60 -59
-45 -8 11 -9 10 -4 -8 4 -15 1 -24 -9 -28 -9 -3 -16 -13 -16 -21 0 -9 -6 -13
-14 -10 -10 4 -13 1 -9 -9 3 -7 1 -14 -5 -14 -17 0 -23 32 -9 49 8 9 36 47 62
85 26 38 53 75 59 82 15 18 29 17 23 0z m114 -13 c13 -16 12 -17 -3 -4 -10 7
-18 15 -18 17 0 8 8 3 21 -13z m-262 -27 c8 -10 8 -16 -2 -25 -16 -13 -27 -5
-27 21 0 21 13 23 29 4z m-702 -57 c15 -6 37 -15 48 -19 97 -38 232 -94 240
-100 6 -4 21 -10 35 -13 16 -4 30 -18 39 -39 8 -18 24 -55 37 -83 29 -65 31
-73 60 -185 13 -52 24 -106 24 -121 0 -55 -114 -292 -168 -348 -29 -30 -198
-103 -314 -135 -90 -26 -110 -22 -154 27 -20 23 -84 91 -141 150 -98 103 -119
138 -96 161 33 33 49 269 26 371 l-11 50 56 50 c30 27 103 94 161 147 58 53
111 97 118 98 7 0 25 -5 40 -11z m-2107 -9 c0 -5 -2 -10 -4 -10 -3 0 -8 5 -11
10 -3 6 -1 10 4 10 6 0 11 -4 11 -10z m-30 -20 c8 -5 11 -10 5 -10 -5 0 -17 5
-25 10 -8 5 -10 10 -5 10 6 0 17 -5 25 -10z m3218 -508 c3 -9 -2 -13 -14 -10
-9 1 -19 9 -22 16 -3 9 2 13 14 10 9 -1 19 -9 22 -16z m-142 -33 c10 -17 -13
-36 -27 -22 -12 12 -4 33 11 33 5 0 12 -5 16 -11z m102 -12 c2 -12 -3 -17 -17
-17 -15 0 -21 6 -21 21 0 25 33 22 38 -4z m-447 -17 l46 0 -18 -87 c-32 -156
-92 -299 -177 -418 -20 -27 -36 -51 -36 -52 -1 0 -18 -4 -38 -8 l-38 -7 0 110
0 110 42 68 c48 79 88 166 113 242 15 46 21 53 39 48 12 -3 42 -6 67 -6z m219
-20 c0 -5 -5 -12 -12 -16 -12 -8 -40 24 -32 38 6 10 44 -9 44 -22z m180 5 c16
-20 1 -38 -23 -29 -17 6 -22 25 -10 37 10 11 19 8 33 -8z m-227 -31 c9 -10 -4
-34 -19 -34 -8 0 -14 9 -14 20 0 19 19 27 33 14z m45 -46 c-6 -18 -28 -21 -28
-4 0 9 7 16 16 16 9 0 14 -5 12 -12z m-78 -23 c0 -8 -4 -15 -10 -15 -5 0 -10
7 -10 15 0 8 5 15 10 15 6 0 10 -7 10 -15z m-2665 -15 c3 -6 -4 -10 -17 -10
-18 0 -20 2 -8 10 19 12 18 12 25 0z m1071 -39 c15 -16 95 -34 174 -39 79 -5
226 14 248 31 9 7 18 5 30 -9 9 -11 47 -53 83 -94 37 -41 94 -104 128 -140 33
-36 61 -70 61 -77 0 -34 -156 -283 -194 -308 -27 -18 -174 -42 -289 -48 -83
-5 -91 -4 -145 25 -97 52 -229 146 -254 180 -37 50 -73 142 -63 158 3 4 -2 27
-10 50 -31 87 -27 96 91 193 107 87 122 95 140 78z m1588 -20 c3 -5 -1 -14 -8
-20 -16 -13 -32 2 -21 19 8 12 22 13 29 1z m-2917 -17 c-3 -3 -12 -4 -19 -1
-8 3 -5 6 6 6 11 1 17 -2 13 -5z m-41 -13 c-6 -9 -46 -22 -46 -15 0 3 10 9 23
14 29 11 29 11 23 1z m84 1 c0 -4 -23 -17 -52 -28 -29 -10 -56 -20 -60 -22 -4
-2 -8 0 -8 6 0 5 19 15 43 22 23 7 46 17 52 22 12 10 25 10 25 0z m-230 -22
c0 -5 -5 -10 -11 -10 -5 0 -7 5 -4 10 3 6 8 10 11 10 2 0 4 -4 4 -10z m-214
-42 c-7 -18 -12 -38 -9 -44 4 -13 43 -7 43 7 0 5 8 9 18 9 10 0 27 7 38 15 25
19 35 19 28 0 -4 -8 -13 -15 -21 -15 -8 0 -13 -6 -10 -12 3 -8 -5 -14 -22 -15
-14 -1 -44 -5 -66 -8 -36 -6 -43 -3 -69 24 -16 17 -28 32 -25 34 17 12 77 36
91 36 15 1 16 -2 4 -31z m627 7 c4 -8 2 -17 -3 -20 -26 -16 -422 -173 -413
-164 17 17 376 197 394 198 9 1 19 -6 22 -14z m3144 -101 c8 -21 -13 -42 -28
-27 -13 13 -5 43 11 43 6 0 13 -7 17 -16z m-462 -43 c-13 -14 -17 -14 -32 1
-14 14 -14 20 -3 33 12 14 15 14 32 -2 17 -15 17 -18 3 -32z m421 -30 c-9 -14
-33 -14 -41 -1 -4 6 -1 18 6 26 11 13 14 13 27 0 8 -8 11 -19 8 -25z m94 24
c16 -20 1 -38 -23 -29 -17 6 -22 25 -10 37 10 11 19 8 33 -8z m-200 -31 c0
-16 -26 -19 -35 -4 -4 6 -4 18 -1 27 5 12 9 13 21 3 8 -7 15 -19 15 -26z
m-360 11 c10 -12 10 -19 2 -27 -15 -15 -48 14 -38 31 10 15 21 14 36 -4z m107
-1 c3 -8 1 -20 -4 -25 -12 -12 -48 14 -39 29 10 17 36 15 43 -4z m408 -44 c0
-8 -8 -16 -17 -18 -13 -2 -18 3 -18 18 0 15 5 20 18 18 9 -2 17 -10 17 -18z
m-3228 4 c-3 -3 -12 -4 -19 -1 -8 3 -5 6 6 6 11 1 17 -2 13 -5z m2673 -25 c0
-12 -7 -19 -19 -19 -26 0 -36 17 -21 35 15 18 40 8 40 -16z m100 5 c0 -8 -6
-14 -13 -14 -19 0 -27 10 -20 25 6 17 33 8 33 -11z m-48 -66 c-17 -17 -47 9
-30 29 10 12 13 12 27 -1 11 -12 12 -19 3 -28z m-324 -26 c14 -9 -57 -88 -124
-138 -21 -16 -41 -31 -44 -35 -17 -19 -190 -117 -190 -107 1 7 40 38 88 68 52
33 119 88 167 137 44 46 82 83 85 83 3 0 11 -4 18 -8z m671 -56 c8 -10 8 -16
-2 -24 -17 -14 -42 2 -34 22 8 20 21 20 36 2z m-2150 -23 c60 -4 81 -10 101
-28 28 -26 171 -115 243 -151 43 -22 47 -27 41 -52 -4 -15 -9 -30 -11 -34 -6
-11 -157 48 -246 95 -84 44 -237 160 -237 178 0 6 7 8 16 5 10 -4 51 -9 93
-13z m2099 -25 c20 -20 14 -38 -13 -38 -29 0 -45 28 -24 41 18 12 23 11 37 -3z
m-170 -86 c3 -16 -2 -22 -17 -22 -24 0 -35 15 -27 36 9 23 40 13 44 -14z m57
-71 c-13 -14 -17 -14 -32 1 -14 14 -14 20 -3 33 12 14 15 14 32 -2 17 -15 17
-18 3 -32z m-1144 2 c23 -12 66 -19 137 -21 67 -3 102 -8 99 -15 -10 -30 -293
-97 -410 -97 -66 0 -245 24 -255 35 -2 2 -1 17 3 33 6 29 6 29 98 36 100 7
244 29 254 40 11 11 39 7 74 -11z m979 -29 c11 -12 11 -18 -2 -30 -14 -14 -17
-14 -32 1 -13 13 -14 20 -5 31 15 18 24 18 39 -2z m-1693 -71 c41 -20 76 -40
78 -43 3 -6 -126 -46 -209 -65 -10 -2 -21 -7 -24 -9 -2 -3 -18 4 -34 15 -20
15 -48 22 -89 24 -32 1 -56 -1 -53 -6 3 -5 -2 -6 -11 -3 -17 7 -173 -44 -193
-63 -7 -7 -16 -13 -18 -13 -3 0 -2 6 2 13 4 6 -1 5 -12 -4 -18 -15 -98 -39
-186 -55 -21 -3 -38 -10 -38 -14 0 -9 -46 -7 -55 2 -3 3 7 9 22 13 15 3 42 13
58 20 17 7 57 23 90 34 33 12 67 24 75 28 89 36 472 161 494 162 15 1 62 -16
103 -36z m1643 12 c10 -12 10 -18 0 -30 -12 -14 -15 -14 -31 1 -14 13 -16 20
-8 31 15 17 24 17 39 -2z m120 -10 c0 -21 -19 -28 -36 -15 -10 9 -11 16 -3 26
12 15 39 8 39 -11z m-53 -51 c3 -8 1 -20 -6 -27 -14 -14 -47 15 -37 32 10 16
36 13 43 -5z m-854 -161 c-7 -2 -19 -2 -25 0 -7 3 -2 5 12 5 14 0 19 -2 13 -5z
m-996 -119 c-3 -3 -12 -4 -19 -1 -8 3 -5 6 6 6 11 1 17 -2 13 -5z"/>
<path d="M7977 6670 c-3 -8 -22 -69 -42 -135 -20 -66 -41 -130 -46 -142 -8
-21 -6 -23 25 -23 18 0 47 3 65 6 l31 6 -6 77 c-13 164 -21 225 -27 211z"/>
<path d="M7355 6711 c-39 -6 -40 -7 -52 -61 -6 -30 -12 -67 -12 -82 -1 -28 -1
-28 67 -28 93 0 112 19 112 113 l0 67 -37 -1 c-21 -1 -56 -5 -78 -8z"/>
<path d="M7326 6381 l-50 -6 -13 -60 c-8 -33 -12 -76 -11 -95 l3 -35 50 3 c28
2 62 5 76 8 30 6 34 18 45 129 l7 65 -29 -2 c-16 0 -51 -4 -78 -7z"/>
<path d="M6735 6655 c-5 -2 -22 -6 -36 -9 -24 -5 -27 -11 -33 -77 -3 -40 -9
-84 -13 -97 l-6 -25 79 6 c43 4 83 12 88 17 12 12 37 170 30 182 -5 8 -89 10
-109 3z"/>
<path d="M9257 5770 c-32 -4 -62 -11 -67 -16 -10 -11 -30 -129 -30 -179 l0
-38 78 7 c42 4 83 13 91 21 15 15 37 174 28 199 -7 17 -11 17 -100 6z"/>
<path d="M9135 5474 c-134 -19 -176 -29 -105 -25 21 2 22 0 10 -9 -12 -9 -12
-13 -2 -17 9 -4 10 -8 2 -18 -8 -9 -8 -15 0 -20 5 -3 11 -3 11 2 1 4 5 -5 9
-22 l7 -30 11 28 c14 33 47 47 114 47 68 0 56 10 -16 13 -61 3 -91 19 -60 34
29 13 79 10 77 -4 -4 -17 7 -16 27 2 17 16 55 10 44 -6 -3 -5 8 -9 25 -9 33 0
40 -7 47 -47 3 -15 10 -34 15 -42 8 -12 9 -5 5 24 -4 28 -1 44 11 57 15 16 15
18 0 18 -25 0 -32 22 -11 37 17 13 15 14 -26 12 -25 -2 -112 -13 -195 -25z
m-50 -33 c-3 -6 -11 -8 -17 -5 -6 4 -5 9 3 15 16 10 23 4 14 -10z"/>
<path d="M9353 5323 c-18 -7 -16 -30 3 -37 22 -8 26 -3 17 21 -5 11 -14 18
-20 16z"/>
<path d="M9290 5254 c0 -20 4 -33 10 -29 11 7 9 65 -2 65 -5 0 -8 -16 -8 -36z"/>
<path d="M8971 5264 c0 -11 3 -14 6 -6 3 7 2 16 -1 19 -3 4 -6 -2 -5 -13z"/>
<path d="M9371 5254 c0 -11 3 -14 6 -6 3 7 2 16 -1 19 -3 4 -6 -2 -5 -13z"/>
<path d="M8450 5414 c0 -8 5 -12 10 -9 6 3 10 10 10 16 0 5 -4 9 -10 9 -5 0
-10 -7 -10 -16z"/>
<path d="M8363 5413 c-7 -2 -13 -9 -13 -15 0 -6 6 -6 15 2 8 7 23 10 34 7 10
-2 25 -1 32 4 15 9 -46 11 -68 2z"/>
<path d="M8632 5408 c-10 -4 0 -7 26 -7 23 -1 42 3 42 8 0 10 -42 10 -68 -1z"/>
<path d="M8417 5356 c-3 -22 -3 -44 1 -50 3 -6 9 2 12 19 3 17 15 34 28 41 15
8 20 14 12 19 -6 4 -17 2 -24 -5 -11 -8 -15 -8 -18 2 -3 7 -7 -5 -11 -26z"/>
<path d="M8576 5084 c7 -3 10 -15 8 -27 -4 -21 -4 -21 5 -2 10 23 5 35 -12 34
-9 0 -9 -2 -1 -5z"/>
<path d="M8450 5076 c0 -9 30 -14 35 -6 4 6 -3 10 -14 10 -12 0 -21 -2 -21 -4z"/>
<path d="M8510 5069 c0 -5 5 -7 10 -4 6 3 10 8 10 11 0 2 -4 4 -10 4 -5 0 -10
-5 -10 -11z"/>
<path d="M8654 5051 c9 -14 -37 -22 -47 -8 -6 8 -7 6 -3 -5 3 -12 0 -18 -9
-19 -28 -3 -33 -4 -39 -10 -4 -3 29 -4 71 -1 77 4 100 10 75 19 -7 3 -19 11
-26 19 -16 16 -30 19 -22 5z"/>
<path d="M8437 5019 c-9 -5 -21 -8 -26 -5 -5 3 -11 -1 -15 -9 -4 -12 3 -15 33
-15 52 0 101 10 101 21 0 5 -11 7 -25 5 -13 -3 -27 0 -30 5 -8 11 -15 11 -38
-2z"/>
<path d="M8720 5020 c0 -5 5 -10 11 -10 5 0 7 5 4 10 -3 6 -8 10 -11 10 -2 0
-4 -4 -4 -10z"/>
<path d="M7694 5331 c5 -8 56 -3 56 5 0 2 -14 4 -31 4 -16 0 -28 -4 -25 -9z"/>
<path d="M7653 5290 c-1 -22 3 -40 8 -40 6 0 8 4 4 10 -9 15 6 61 18 53 6 -3
7 -1 3 5 -15 25 -32 11 -33 -28z"/>
<path d="M7726 5255 c-3 -8 -2 -23 1 -32 5 -13 3 -15 -13 -9 -18 7 -18 6 -2
-10 21 -22 24 -19 31 29 6 36 -5 51 -17 22z"/>
<path d="M8006 5143 c-3 -26 -15 -63 -26 -81 l-20 -33 22 12 c16 9 23 9 26 0
2 -6 12 -11 23 -11 10 0 19 -4 19 -9 0 -14 -41 -41 -62 -41 -9 0 -20 -5 -23
-10 -8 -14 58 -5 83 11 22 14 57 79 42 79 -5 0 -13 -7 -18 -16 -9 -16 -20 -13
-62 14 -2 2 2 7 10 12 10 6 14 24 13 56 -2 66 -19 76 -27 17z"/>
<path d="M7637 5134 c-10 -10 -9 -42 2 -49 14 -8 19 6 12 33 -3 13 -9 20 -14
16z"/>
<path d="M7711 5074 c0 -11 3 -14 6 -6 3 7 2 16 -1 19 -3 4 -6 -2 -5 -13z"/>
<path d="M7923 5033 c-13 -2 -23 -8 -23 -13 0 -12 28 -6 42 8 7 7 10 11 8 11
-3 -1 -15 -4 -27 -6z"/>
<path d="M6976 5256 c-3 -13 -2 -35 3 -48 8 -21 9 -20 9 9 -1 18 5 39 12 48
10 12 10 15 -3 15 -8 0 -18 -11 -21 -24z"/>
<path d="M7050 5243 c0 -5 -3 -31 -6 -59 -4 -33 -2 -54 5 -58 7 -4 11 1 11 12
0 11 3 40 6 66 5 31 3 46 -5 46 -6 0 -11 -3 -11 -7z"/>
<path d="M7345 5130 c4 -6 11 -8 16 -5 14 9 11 15 -7 15 -8 0 -12 -5 -9 -10z"/>
<path d="M7030 5069 c0 -5 5 -7 10 -4 6 3 10 8 10 11 0 2 -4 4 -10 4 -5 0 -10
-5 -10 -11z"/>
<path d="M7410 5070 c0 -5 5 -10 10 -10 6 0 10 5 10 10 0 6 -4 10 -10 10 -5 0
-10 -4 -10 -10z"/>
<path d="M7030 5036 c0 -8 4 -17 9 -20 5 -4 7 3 4 14 -6 23 -13 26 -13 6z"/>
<path d="M7256 4981 c-3 -4 -17 -6 -31 -3 -14 2 -25 0 -25 -6 0 -14 47 -21 59
-9 8 8 11 7 11 -1 0 -7 -4 -12 -10 -12 -15 0 -12 -36 3 -49 17 -13 71 1 98 25
23 21 25 36 4 28 -9 -4 -15 0 -15 7 0 11 -2 12 -9 1 -4 -7 -14 -12 -21 -10 -7
2 -16 -7 -19 -18 -5 -19 -8 -20 -19 -8 -9 10 -9 14 -1 14 6 0 9 8 6 19 -3 14
-1 18 9 14 8 -3 14 0 14 6 0 13 -46 15 -54 2z m74 -51 c0 -5 -4 -10 -10 -10
-5 0 -10 5 -10 10 0 6 5 10 10 10 6 0 10 -4 10 -10z"/>
<path d="M6513 5553 c-12 -2 -26 -10 -31 -16 -10 -13 -72 -470 -72 -533 l0
-37 80 7 c44 3 86 9 93 12 15 5 29 75 47 234 6 52 15 124 20 160 5 36 11 90
12 120 l3 55 -65 1 c-36 1 -75 0 -87 -3z"/>
<path d="M6367 5213 c-3 -5 -1 -17 3 -28 6 -17 7 -16 12 8 5 25 -5 37 -15 20z"/>
<path d="M6277 5111 c-4 -18 -7 -43 -7 -55 1 -19 3 -18 16 7 11 20 13 36 6 55
l-9 27 -6 -34z"/>
<path d="M6340 4985 c4 -20 11 -40 15 -43 10 -10 -5 61 -15 72 -5 5 -5 -8 0
-29z"/>
<path d="M6731 4990 c0 -15 -6 -31 -12 -37 -7 -7 -8 -13 0 -17 12 -8 25 34 18
61 -3 13 -5 11 -6 -7z"/>
<path d="M6377 4919 c7 -7 15 -10 18 -7 3 3 -2 9 -12 12 -14 6 -15 5 -6 -5z"/>
<path d="M6432 4858 c-6 -6 -12 -16 -12 -21 0 -13 141 0 155 14 7 7 4 8 -8 3
-9 -3 -32 0 -49 7 -24 10 -33 10 -36 1 -5 -15 -29 -16 -34 -2 -2 7 -8 6 -16
-2z"/>
<path d="M5900 5166 c0 -2 7 -6 15 -10 8 -3 15 -1 15 4 0 6 -7 10 -15 10 -8 0
-15 -2 -15 -4z"/>
<path d="M6052 5020 c0 -14 2 -19 5 -12 2 6 2 18 0 25 -3 6 -5 1 -5 -13z"/>
<path d="M5587 4983 c-4 -3 -7 -11 -7 -17 0 -6 5 -5 12 2 6 6 9 14 7 17 -3 3
-9 2 -12 -2z"/>
<path d="M5950 4920 c-7 -16 -16 -30 -20 -30 -4 0 -11 -8 -14 -17 -4 -10 -4
-14 0 -10 4 4 14 1 23 -6 14 -10 14 -10 3 4 -10 14 -9 17 6 21 12 4 21 17 24
37 6 39 -6 40 -22 1z"/>
<path d="M5664 4930 c-15 -15 14 -70 36 -70 12 0 12 2 2 9 -8 5 -17 23 -20 40
-5 24 -10 29 -18 21z"/>
<path d="M6000 4840 c-8 -5 -12 -12 -9 -15 4 -3 12 1 19 10 14 17 11 19 -10 5z"/>
<path d="M5810 4790 c-12 -8 -9 -9 12 -8 15 1 24 6 22 10 -7 10 -16 10 -34 -2z"/>
<path d="M3256 3609 c5 -8 -1 -10 -18 -6 -17 5 -30 2 -38 -8 -11 -13 -10 -14
2 -10 8 3 27 1 41 -4 30 -12 87 -4 87 12 0 5 -13 7 -30 4 -23 -5 -28 -3 -23 8
3 10 -1 15 -12 15 -9 0 -13 -5 -9 -11z"/>
<path d="M3230 3566 c0 -2 7 -9 15 -16 12 -10 15 -10 15 4 0 9 -7 16 -15 16
-8 0 -15 -2 -15 -4z"/>
<path d="M3290 3559 c0 -5 5 -7 10 -4 6 3 10 8 10 11 0 2 -4 4 -10 4 -5 0 -10
-5 -10 -11z"/>
<path d="M2541 7584 c0 -11 3 -14 6 -6 3 7 2 16 -1 19 -3 4 -6 -2 -5 -13z"/>
<path d="M3331 6474 c0 -11 3 -14 6 -6 3 7 2 16 -1 19 -3 4 -6 -2 -5 -13z"/>
<path d="M2752 5925 c6 -14 15 -25 19 -25 5 0 3 11 -3 25 -6 14 -15 25 -19 25
-5 0 -3 -11 3 -25z"/>
<path d="M5030 5871 c-14 -27 -13 -31 8 -24 14 5 15 3 5 -8 -7 -7 -13 -18 -13
-23 0 -6 4 -5 9 3 7 11 11 10 20 -7 7 -14 8 -23 1 -27 -13 -8 -3 -25 13 -25 8
0 8 3 -1 9 -10 6 -9 11 4 22 12 9 15 10 10 2 -4 -7 -3 -13 2 -13 16 0 22 13
12 25 -7 8 -7 21 -1 38 9 23 7 26 -21 36 -39 14 -35 14 -48 -8z"/>
<path d="M2950 5791 c0 -6 4 -13 10 -16 6 -3 7 1 4 9 -7 18 -14 21 -14 7z"/>
<path d="M2885 5710 c-3 -5 -1 -10 4 -10 6 0 11 5 11 10 0 6 -2 10 -4 10 -3 0
-8 -4 -11 -10z"/>
<path d="M5374 5476 c-21 -23 -26 -53 -9 -60 8 -3 15 0 15 7 0 8 4 6 10 -3 7
-12 10 -12 10 -1 0 7 6 11 15 8 8 -4 17 -1 21 5 4 7 3 8 -4 4 -7 -4 -12 -1
-12 8 0 9 -4 16 -10 16 -5 0 -10 7 -10 15 0 18 -11 19 -26 1z"/>
<path d="M5320 5389 c0 -5 5 -7 10 -4 6 3 10 8 10 11 0 2 -4 4 -10 4 -5 0 -10
-5 -10 -11z"/>
<path d="M5437 5351 c-3 -12 -1 -21 3 -21 15 0 23 21 12 32 -6 6 -11 2 -15
-11z"/>
<path d="M2335 5235 c-16 -8 -23 -14 -14 -15 8 0 24 7 35 15 23 18 18 18 -21
0z"/>
<path d="M2730 5177 c-36 -17 -66 -35 -68 -39 -2 -4 -10 -8 -18 -8 -8 0 -14
-4 -14 -8 0 -4 12 -7 28 -6 41 2 44 3 38 13 -3 4 6 6 19 3 26 -4 35 12 13 22
-7 3 -3 3 9 0 18 -4 22 -2 17 10 -4 10 -1 16 7 16 8 0 23 7 33 15 31 23 7 17
-64 -18z"/>
<path d="M2506 4835 c-14 -11 -16 -15 -5 -15 8 0 23 7 33 15 14 11 16 15 5 15
-8 0 -23 -7 -33 -15z"/>
<path d="M1670 4820 c-13 -8 -12 -10 3 -10 9 0 17 5 17 10 0 12 -1 12 -20 0z"/>
<path d="M2585 4780 c-3 -5 -2 -10 4 -10 5 0 13 5 16 10 3 6 2 10 -4 10 -5 0
-13 -4 -16 -10z"/>
<path d="M2533 4757 c-18 -6 -33 -15 -33 -19 0 -14 31 -9 47 7 8 8 19 12 25 9
7 -4 8 -2 4 4 -4 7 -8 11 -9 11 -1 -1 -17 -7 -34 -12z"/>
<path d="M1830 4720 c-13 -8 -13 -10 2 -10 9 0 20 5 23 10 8 13 -5 13 -25 0z"/>
<path d="M1770 4690 c0 -5 7 -7 15 -4 8 4 15 8 15 10 0 2 -7 4 -15 4 -8 0 -15
-4 -15 -10z"/>
<path d="M1735 4670 c-3 -5 -2 -10 4 -10 5 0 13 5 16 10 3 6 2 10 -4 10 -5 0
-13 -4 -16 -10z"/>
<path d="M2652 4664 c-1 -6 -22 -21 -47 -33 -43 -22 -76 -51 -42 -38 9 3 19 2
22 -2 3 -5 14 -7 25 -4 14 4 20 0 20 -11 0 -10 4 -15 9 -12 4 3 6 -7 4 -22 -4
-23 -3 -24 7 -10 6 10 9 45 7 80 -2 35 -4 58 -5 52z"/>
<path d="M1690 4650 c-8 -4 -40 -20 -72 -34 -31 -13 -59 -30 -63 -35 -3 -6
-14 -11 -23 -11 -25 0 -222 -99 -222 -111 0 -6 -4 -8 -8 -5 -5 3 -40 -11 -78
-31 -79 -42 -79 -41 -72 -48 3 -3 36 10 74 29 38 19 107 52 154 74 215 99 329
156 325 163 -3 4 1 10 7 12 7 3 9 6 3 6 -5 0 -17 -4 -25 -9z"/>
<path d="M1988 4563 c7 -3 16 -2 19 1 4 3 -2 6 -13 5 -11 0 -14 -3 -6 -6z"/>
<path d="M2020 4559 c0 -5 5 -7 10 -4 6 3 10 8 10 11 0 2 -4 4 -10 4 -5 0 -10
-5 -10 -11z"/>
<path d="M5576 4539 c3 -5 0 -17 -5 -28 -8 -14 -7 -22 4 -31 8 -7 15 -11 16
-9 9 50 8 76 -5 76 -9 0 -13 -4 -10 -8z"/>
<path d="M2415 4530 c3 -5 8 -10 11 -10 2 0 4 5 4 10 0 6 -5 10 -11 10 -5 0
-7 -4 -4 -10z"/>
<path d="M1895 4520 c-3 -5 -1 -10 4 -10 6 0 11 5 11 10 0 6 -2 10 -4 10 -3 0
-8 -4 -11 -10z"/>
<path d="M5515 4520 c3 -5 8 -10 11 -10 2 0 4 5 4 10 0 6 -5 10 -11 10 -5 0
-7 -4 -4 -10z"/>
<path d="M1810 4487 c-25 -11 -51 -27 -58 -33 -6 -7 -21 -16 -33 -19 -11 -4
-19 -9 -16 -11 4 -4 81 23 132 46 11 5 31 12 45 16 23 7 24 7 5 15 -27 10 -24
11 -75 -14z"/>
<path d="M1658 4410 c-15 -4 -35 -15 -44 -24 -8 -9 -26 -16 -38 -16 -22 0 -64
-35 -54 -45 8 -8 117 45 145 71 14 13 24 24 22 23 -2 0 -16 -4 -31 -9z"/>
<path d="M5396 4393 c-6 -14 -5 -15 5 -6 7 7 10 15 7 18 -3 3 -9 -2 -12 -12z"/>
<path d="M5430 4381 c0 -5 -9 -13 -20 -16 -11 -3 -20 -13 -20 -21 0 -20 5 -18
35 11 27 28 30 35 15 35 -5 0 -10 -4 -10 -9z"/>
<path d="M1125 4370 c-3 -5 -1 -10 4 -10 6 0 11 5 11 10 0 6 -2 10 -4 10 -3 0
-8 -4 -11 -10z"/>
<path d="M1078 4343 c7 -3 16 -2 19 1 4 3 -2 6 -13 5 -11 0 -14 -3 -6 -6z"/>
<path d="M6065 4294 c-31 -31 6 -82 39 -55 21 17 21 57 0 65 -21 8 -20 8 -39
-10z"/>
<path d="M5341 4291 c-8 -5 -9 -11 -3 -15 5 -3 12 1 16 9 6 17 6 18 -13 6z"/>
<path d="M1177 4179 c7 -7 15 -10 18 -7 3 3 -2 9 -12 12 -14 6 -15 5 -6 -5z"/>
<path d="M1130 4160 c-12 -8 -11 -10 7 -10 12 0 25 5 28 10 8 13 -15 13 -35 0z"/>
<path d="M2415 4160 c3 -5 8 -10 11 -10 2 0 4 5 4 10 0 6 -5 10 -11 10 -5 0
-7 -4 -4 -10z"/>
<path d="M1176 3945 c-11 -8 -27 -15 -37 -15 -9 0 -19 -7 -23 -15 -3 -8 -18
-15 -34 -15 -15 0 -37 -7 -47 -15 -11 -8 -87 -49 -170 -90 -231 -117 -226
-123 22 -30 96 36 196 73 221 81 26 9 61 22 77 29 17 7 38 16 48 19 17 6 17 8
-3 36 -24 34 -28 35 -54 15z"/>
<path d="M1555 3910 c-3 -5 -2 -10 4 -10 5 0 13 5 16 10 3 6 2 10 -4 10 -5 0
-13 -4 -16 -10z"/>
<path d="M2790 3670 c-13 -8 -12 -10 3 -10 9 0 17 5 17 10 0 12 -1 12 -20 0z"/>
<path d="M1769 3413 c-11 -3 10 -29 73 -91 48 -48 93 -89 98 -90 6 -2 17 1 25
8 12 10 5 20 -43 63 -31 29 -72 67 -91 85 -19 17 -37 31 -40 31 -3 -1 -13 -3
-22 -6z"/>
<path d="M1350 3394 c0 -10 59 -64 69 -64 5 0 12 -8 16 -17 3 -10 57 -72 120
-138 104 -109 116 -119 130 -104 14 14 8 22 -62 90 -43 41 -116 108 -163 149
-47 41 -86 78 -88 83 -4 9 -22 10 -22 1z"/>
<path d="M1590 3352 c0 -16 190 -194 202 -190 28 10 13 32 -79 112 -90 79
-123 100 -123 78z"/>
<path d="M910 3273 c0 -5 77 -57 171 -118 94 -60 190 -124 214 -142 29 -21 50
-30 64 -26 31 8 25 26 -17 49 -20 11 -117 66 -214 122 -97 56 -181 102 -187
102 -6 0 -11 5 -11 10 0 6 -4 10 -10 10 -5 0 -10 -3 -10 -7z"/>
<path d="M1995 3130 c4 -6 11 -8 16 -5 14 9 11 15 -7 15 -8 0 -12 -5 -9 -10z"/>
<path d="M2248 2933 c6 -2 18 -2 25 0 6 3 1 5 -13 5 -14 0 -19 -2 -12 -5z"/>
<path d="M2118 2893 c7 -3 16 -2 19 1 4 3 -2 6 -13 5 -11 0 -14 -3 -6 -6z"/>
</g>
</svg>
