<?xml version="1.0" standalone="no"?>
<!DOCTYPE svg PUBLIC "-//W3C//DTD SVG 20010904//EN"
 "http://www.w3.org/TR/2001/REC-SVG-20010904/DTD/svg10.dtd">
<svg version="1.0" xmlns="http://www.w3.org/2000/svg"
 width="200.000000pt" height="200.000000pt" viewBox="0 0 200.000000 200.000000"
 preserveAspectRatio="xMidYMid meet">

<g transform="translate(0.000000,200.000000) scale(0.100000,-0.100000)"
fill="#000000" stroke="none">
<path d="M360 1168 c0 -15 99 -267 111 -283 4 -6 19 -11 32 -13 21 -1 28 6 42
41 l17 42 17 -35 c19 -42 26 -48 54 -46 19 1 31 23 79 141 32 77 57 146 58
153 0 9 -11 12 -32 10 -31 -3 -35 -8 -69 -90 -19 -48 -38 -90 -40 -93 -3 -3
-23 38 -43 90 -37 94 -38 95 -72 95 -19 0 -34 -2 -34 -5 0 -3 11 -32 24 -65
23 -55 24 -64 11 -93 l-14 -32 -14 35 c-8 19 -26 62 -39 95 -22 54 -27 60 -56
63 -21 2 -32 -1 -32 -10z"/>
<path d="M905 1160 c3 -5 15 -15 26 -20 16 -9 19 -7 19 10 0 15 -7 20 -26 20
-14 0 -22 -4 -19 -10z"/>
<path d="M882 988 l3 -113 30 0 30 0 3 84 c3 87 -5 108 -51 132 -17 9 -17 3
-15 -103z"/>
<path d="M1102 1083 c-51 -43 -34 -90 44 -116 43 -15 60 -47 24 -47 -11 0 -34
7 -50 15 -27 14 -30 14 -40 -5 -15 -28 -6 -37 42 -51 76 -20 138 10 138 67 0
28 -26 49 -77 65 -42 12 -56 34 -29 45 8 3 27 -1 43 -10 27 -13 30 -13 42 6 7
11 11 21 9 23 -35 29 -116 33 -146 8z"/>
<path d="M1422 1087 c-53 -30 -71 -111 -37 -163 22 -34 79 -57 121 -50 37 8
89 45 77 56 -15 15 -50 15 -67 1 -22 -18 -69 -4 -74 22 -3 15 6 17 77 17 79 0
81 1 81 25 0 38 -21 75 -51 91 -34 17 -96 18 -127 1z m96 -49 c21 -21 13 -28
-33 -28 -48 0 -48 0 -39 24 7 19 55 21 72 4z"/>
<path d="M1635 860 c3 -5 8 -10 11 -10 2 0 4 5 4 10 0 6 -5 10 -11 10 -5 0 -7
-4 -4 -10z"/>
</g>
</svg>
